<?xml version="1.0" standalone="no"?><!DOCTYPE svg PUBLIC "-//W3C//DTD SVG 1.1//EN" "http://www.w3.org/Graphics/SVG/1.1/DTD/svg11.dtd"><svg t="1641903537441" class="icon" viewBox="0 0 1024 1024" version="1.1" xmlns="http://www.w3.org/2000/svg" p-id="8013" xmlns:xlink="http://www.w3.org/1999/xlink" width="200" height="200"><defs><style type="text/css"></style></defs><path d="M513 772.7c-167.2 0-302.6-76.8-406.1-230.3-11.9-17.6-11.8-40.7 0.2-58.3C212 330.5 347.3 253.7 513 253.7s301 76.8 406 230.4c12 17.6 12 40.7 0.2 58.3-103.6 153.5-239 230.3-406.2 230.3z m0-103.8c88 0 159.3-69.7 159.3-155.7S601 357.5 513 357.5s-159.3 69.7-159.3 155.7S425 668.9 513 668.9z m0.2-76.7c-44 0-79.7-34.8-79.7-77.9 0-43 35.7-77.9 79.7-77.9s79.6 34.9 79.6 77.9c0 43-35.6 77.9-79.6 77.9z" p-id="8014"></path></svg>