<?xml version="1.0" standalone="no"?><!DOCTYPE svg PUBLIC "-//W3C//DTD SVG 1.1//EN" "http://www.w3.org/Graphics/SVG/1.1/DTD/svg11.dtd"><svg t="1641901006289" class="icon" viewBox="0 0 1024 1024" version="1.1" xmlns="http://www.w3.org/2000/svg" p-id="18853" xmlns:xlink="http://www.w3.org/1999/xlink" width="200" height="200"><defs><style type="text/css"></style></defs><path d="M810.656 341.344H761.92V243.808A243.904 243.904 0 0 0 518.08 0a243.904 243.904 0 0 0-243.808 243.84v97.504H225.536A97.824 97.824 0 0 0 128 438.848v487.616A97.824 97.824 0 0 0 225.536 1024h585.12a97.824 97.824 0 0 0 97.536-97.536V438.848a97.824 97.824 0 0 0-97.536-97.504zM518.08 780.16a97.824 97.824 0 0 1-97.504-97.536 97.824 97.824 0 0 1 97.504-97.504 97.824 97.824 0 0 1 97.536 97.504 97.824 97.824 0 0 1-97.536 97.536z m151.168-438.848h-302.304V243.808a151.296 151.296 0 0 1 151.136-151.168 151.296 151.296 0 0 1 151.168 151.168v97.536z" p-id="18854"></path></svg>