<?xml version="1.0" standalone="no"?><!DOCTYPE svg PUBLIC "-//W3C//DTD SVG 1.1//EN" "http://www.w3.org/Graphics/SVG/1.1/DTD/svg11.dtd"><svg t="1641900997326" class="icon" viewBox="0 0 1024 1024" version="1.1" xmlns="http://www.w3.org/2000/svg" p-id="18721" xmlns:xlink="http://www.w3.org/1999/xlink" width="200" height="200"><defs><style type="text/css"></style></defs><path d="M242.176 289.28c-1.536 101.376 51.712 195.584 139.264 246.784s195.584 51.2 283.136 0 140.8-145.408 139.264-246.784c0-155.136-125.952-281.088-281.088-281.088S241.664 134.144 242.176 289.28z" p-id="18722"></path><path d="M836.096 1010.688c-97.792 16.384-366.592 16.384-556.032 6.144-114.176-6.144-178.688-19.456-199.68-97.792 0-150.016 123.392-361.984 271.872-361.984l117.248 36.352c32.768 6.144 66.048 6.144 99.328 0l124.928-36.352c150.016 0 271.872 213.504 271.872 361.984 2.56 62.976-42.496 78.336-129.536 91.648z" p-id="18723"></path></svg>