<?xml version="1.0" standalone="no"?><!DOCTYPE svg PUBLIC "-//W3C//DTD SVG 1.1//EN" "http://www.w3.org/Graphics/SVG/1.1/DTD/svg11.dtd"><svg t="1641903907592" class="icon" viewBox="0 0 1024 1024" version="1.1" xmlns="http://www.w3.org/2000/svg" p-id="2123" xmlns:xlink="http://www.w3.org/1999/xlink" width="200" height="200"><defs><style type="text/css"></style></defs><path d="M1023.9 511.7h-0.5C936.1 306.8 758 160.4 513.2 159.6h-0.8c-246 0-425 147-512.4 352.6 0 0 0 0.1 0.1 0.1h0.5C87.9 717.2 266 863.6 510.8 864.4h0.8c246 0 425-147 512.4-352.6l-0.1-0.1zM512.1 747.4C382 747.4 276.7 642 276.7 512s105.4-235.4 235.4-235.4S747.5 382 747.5 512 642.1 747.4 512.1 747.4z m0 0" fill="" p-id="2124"></path><path d="M372.6 512c0 77 62.4 139.4 139.4 139.4S651.4 589 651.4 512 589 372.6 512 372.6c-76.9 0-139.4 62.4-139.4 139.4z m0 0" fill="" p-id="2125"></path><path d="M1 759.3l989.7-552.6 32.3 57.9L33.3 817.2 1 759.3z m0 0" fill="" p-id="2126"></path></svg>