<?xml version="1.0" standalone="no"?><!DOCTYPE svg PUBLIC "-//W3C//DTD SVG 1.1//EN" "http://www.w3.org/Graphics/SVG/1.1/DTD/svg11.dtd"><svg t="1641903520107" class="icon" viewBox="0 0 1024 1024" version="1.1" xmlns="http://www.w3.org/2000/svg" p-id="7882" xmlns:xlink="http://www.w3.org/1999/xlink" width="200" height="200"><defs><style type="text/css"></style></defs><path d="M714.24 716.8L640 640 384 384 307.2 309.76 157.44 160a32 32 0 0 0-45.44 45.44l136.96 136.32A518.4 518.4 0 0 0 89.6 499.2a23.04 23.04 0 0 0 0 26.88A494.08 494.08 0 0 0 512 760.96a485.76 485.76 0 0 0 137.6-20.48l171.52 171.52a32 32 0 0 0 45.44-45.44zM512 692.48a178.56 178.56 0 0 1-163.84-251.52l235.52 235.52a177.28 177.28 0 0 1-71.68 16zM512 334.08a177.28 177.28 0 0 1 52.48 8.32L544 481.28a22.4 22.4 0 0 0 26.88 26.88l117.76-16.64a176 176 0 0 1 0 21.12 177.92 177.92 0 0 1-16 73.6l97.92 97.92A499.2 499.2 0 0 0 939.52 512 495.36 495.36 0 0 0 512 264.96a485.12 485.12 0 0 0-136.96 19.84l64 64A177.92 177.92 0 0 1 512 334.08z" fill="#231815" p-id="7883"></path></svg>